<svg xmlns="http://www.w3.org/2000/svg" width="840" height="404" viewBox="0 0 840 404" role="img" aria-labelledby="title">
<title id="title">Mehul Jain — full-stack, AI and cloud engineering</title>
<defs>
  <pattern id="grid" width="32" height="32" patternUnits="userSpaceOnUse"><path d="M32 0V32H0" fill="none" stroke="rgba(22,22,22,0.075)" stroke-width="1"/></pattern>
  <linearGradient id="paper" x1="0" y1="0" x2="1" y2="1"><stop offset="0" stop-color="#F7F5EE"/><stop offset="1" stop-color="#F2F0E8"/></linearGradient>
</defs>
<rect x="8" y="8" width="836" height="400" rx="14" fill="#161616"/>
<rect x="2" y="2" width="836" height="400" rx="14" fill="url(#paper)" stroke="#161616" stroke-width="2"/>
<rect x="2" y="2" width="836" height="400" rx="14" fill="url(#grid)"/>
<g><text x="40" y="56" font-family="monospace" font-size="11" font-weight="600" fill="muted" letter-spacing="1.7">INDEPENDENT BUILDER  /  INDIA</text><path d="M40 73H800" stroke="#A7A49B" stroke-width="1"/><text x="34" y="166" font-family="Arial, Helvetica, sans-serif" font-size="88" font-weight="800" fill="ink" letter-spacing="-3">MEHUL</text><text x="34" y="246" font-family="Arial, Helvetica, sans-serif" font-size="88" font-weight="800" fill="ink" letter-spacing="-3">JAIN</text><rect x="36" y="263" width="254" height="7" rx="2" fill="#FACC00"/><text x="40" y="306" font-family="Arial, Helvetica, sans-serif" font-size="21" font-weight="400" fill="ink">Full-stack development, AI,</text><text x="40" y="334" font-family="Arial, Helvetica, sans-serif" font-size="19" font-weight="600" fill="ink">and cloud systems that solve real problems.</text><text x="40" y="374" font-family="monospace" font-size="10" font-weight="500" fill="muted" letter-spacing="1">THAPAR INSTITUTE OF ENGINEERING & TECHNOLOGY</text><rect x="505" y="111" width="288" height="232" rx="12" fill="#161616"/><rect x="500" y="105" width="288" height="232" rx="12" fill="#FFFFFF" stroke="#161616" stroke-width="2"/><path d="M500 143H788" stroke="#161616" stroke-width="2"/><circle cx="519" cy="124" r="4.5" fill="#E4572E" stroke="#161616" stroke-width=".7"/><circle cx="534" cy="124" r="4.5" fill="#FACC00" stroke="#161616" stroke-width=".7"/><circle cx="549" cy="124" r="4.5" fill="#66645D" stroke="#161616" stroke-width=".7"/><text x="568" y="129" font-family="monospace" font-size="12" font-weight="500" fill="muted">mehul / focus.txt</text><text x="518" y="171" font-family="monospace" font-size="10" font-weight="400" fill="subtle">01</text><text x="545" y="171" font-family="monospace" font-size="13" font-weight="600" fill="ink">ship useful software</text><text x="518" y="199" font-family="monospace" font-size="10" font-weight="400" fill="subtle">02</text><text x="545" y="199" font-family="monospace" font-size="13" font-weight="600" fill="ink">connect the pieces</text><text x="518" y="227" font-family="monospace" font-size="10" font-weight="400" fill="subtle">03</text><text x="545" y="227" font-family="monospace" font-size="13" font-weight="600" fill="ink">learn by building</text><path d="M532 268H588V295H642M588 268V251H707" fill="none" stroke="#161616" stroke-width="1.8"/><rect x="525" y="261" width="14" height="14" rx="3" fill="#FACC00" stroke="#161616" stroke-width="1.6"/><rect x="581" y="261" width="14" height="14" rx="3" fill="#FFFFFF" stroke="#161616" stroke-width="1.6"/><rect x="635" y="288" width="14" height="14" rx="3" fill="#FACC00" stroke="#161616" stroke-width="1.6"/><rect x="700" y="244" width="14" height="14" rx="3" fill="#FFFFFF" stroke="#161616" stroke-width="1.6"/><rect x="672" y="279" width="94" height="25" rx="12" fill="#FFF4B7" stroke="#161616" stroke-width="1.2"/><text x="719" y="296" font-family="monospace" font-size="9" font-weight="700" fill="ink" text-anchor="middle">BUILD / TEST</text><path d="M808 18h14v14M18 372v14h14" fill="none" stroke="#FACC00" stroke-width="4"/></g></svg>