<svg xmlns="http://www.w3.org/2000/svg" width="840" height="164" viewBox="0 0 840 164" role="img" aria-labelledby="title">
<title id="title">CloudScale — Deployment management workspace</title>
<defs>
  <pattern id="grid" width="32" height="32" patternUnits="userSpaceOnUse"><path d="M32 0V32H0" fill="none" stroke="rgba(192,202,245,0.075)" stroke-width="1"/></pattern>
  <linearGradient id="paper" x1="0" y1="0" x2="1" y2="1"><stop offset="0" stop-color="#1A1B26"/><stop offset="1" stop-color="#1F2335"/></linearGradient>
</defs>
<rect x="7" y="7" width="836" height="160" rx="12" fill="#C0CAF5"/>
<rect x="2" y="2" width="836" height="160" rx="12" fill="url(#paper)" stroke="#C0CAF5" stroke-width="2"/>
<rect x="2" y="2" width="836" height="160" rx="12" fill="url(#grid)"/>
<rect x="22" y="24" width="60" height="114" rx="8" fill="#24283B" stroke="#C0CAF5" stroke-width="2"/><text x="52" y="50" font-family="monospace" font-size="11" font-weight="700" fill="ink" text-anchor="middle">02</text><path d="M35 91a13 13 0 0 1 2-26a18 18 0 0 1 34 5a12 12 0 0 1-2 24z" fill="#16161E" stroke="#C0CAF5" stroke-width="2"/><path d="M52 99v17m-9-7 9 7 9-7" fill="none" stroke="#C0CAF5" stroke-width="2"/><text x="106" y="35" font-family="monospace" font-size="10" font-weight="700" fill="muted" letter-spacing="1.2">CLOUD / DEVOPS</text><text x="105" y="76" font-family="Arial, Helvetica, sans-serif" font-size="33" font-weight="800" fill="ink" letter-spacing="-.6">CloudScale</text><text x="107" y="101" font-family="Arial, Helvetica, sans-serif" font-size="15" font-weight="600" fill="ink">Deployment management workspace</text><text x="107" y="125" font-family="Arial, Helvetica, sans-serif" font-size="12" font-weight="400" fill="muted">A dashboard-focused project for exploring deployment workflows.</text><rect x="106" y="137" width="226.79999999999998" height="1.5" fill="#626C95"/><text x="107" y="153" font-family="monospace" font-size="10" font-weight="500" fill="muted">Full stack · Containers · Deployment</text><rect x="766" y="57" width="46" height="46" rx="8" fill="#E0AF68" stroke="#C0CAF5" stroke-width="2"/><text x="789" y="86" font-family="Arial, Helvetica, sans-serif" font-size="23" font-weight="700" fill="accent_ink" text-anchor="middle">↗</text></svg>